<?xml version="1.0" standalone="no"?>
<!DOCTYPE svg PUBLIC "-//W3C//DTD SVG 20010904//EN"
 "http://www.w3.org/TR/2001/REC-SVG-20010904/DTD/svg10.dtd">
<svg version="1.0" xmlns="http://www.w3.org/2000/svg"
 width="481.000000pt" height="481.000000pt" viewBox="0 0 481.000000 481.000000"
 preserveAspectRatio="xMidYMid meet">
<metadata>
Created by potrace 1.11, written by Peter Selinger 2001-2013
</metadata>
<g transform="translate(0.000000,481.000000) scale(0.100000,-0.100000)"
fill="#000000" stroke="none">
<path d="M2051 4729 c-61 -24 -61 -49 1 -74 44 -17 85 -13 131 13 35 21 34 28
-5 52 -35 21 -88 25 -127 9z"/>
<path d="M2641 4722 c-19 -9 -37 -23 -39 -30 -4 -14 71 -52 103 -52 32 0 107
38 103 52 -6 19 -69 48 -103 48 -16 0 -45 -8 -64 -18z"/>
<path d="M945 4281 c-35 -21 -59 -53 -68 -92 -9 -36 12 -43 63 -23 45 18 77
57 86 103 6 29 5 31 -22 31 -16 0 -43 -8 -59 -19z"/>
<path d="M3780 4284 c0 -28 32 -84 59 -103 15 -11 42 -21 61 -23 34 -3 35 -2
32 27 -4 40 -26 72 -65 95 -40 25 -87 27 -87 4z"/>
<path d="M571 3890 c-56 -13 -80 -31 -101 -75 -28 -58 -26 -75 8 -70 67 9 112
53 125 123 4 17 5 32 4 31 -1 -1 -17 -5 -36 -9z"/>
<path d="M4207 3894 c-10 -11 13 -77 35 -101 29 -32 50 -42 88 -47 21 -2 30 1
30 11 0 18 -25 73 -44 96 -14 18 -100 50 -109 41z"/>
<path d="M1194 3856 c-83 -19 -150 -55 -206 -111 -223 -220 -126 -702 255
-1264 l43 -65 -71 -105 c-268 -397 -392 -778 -335 -1023 75 -316 413 -406 877
-232 170 64 378 171 536 275 32 22 62 39 67 39 4 0 59 -32 121 -71 443 -276
868 -390 1111 -299 377 141 345 673 -79 1307 l-75 113 75 112 c145 219 248
426 301 611 33 114 40 161 40 282 0 216 -96 358 -284 419 -66 22 -89 24 -200
21 -191 -5 -369 -55 -609 -172 -117 -57 -311 -168 -365 -209 -24 -18 -34 -20
-53 -11 -12 5 -23 14 -23 19 0 4 -4 8 -9 8 -5 0 -48 25 -97 55 -197 124 -440
232 -634 282 -119 30 -297 39 -386 19z m311 -112 c116 -23 262 -77 410 -150
72 -35 144 -72 160 -82 17 -10 55 -32 85 -50 30 -18 66 -41 80 -52 23 -18 23
-21 8 -30 -25 -15 -222 -173 -308 -248 -163 -141 -451 -445 -557 -587 l-23
-30 -19 25 c-11 14 -50 73 -86 131 -289 466 -358 853 -180 1012 34 30 118 66
175 75 72 10 156 6 255 -14z m2010 4 c69 -15 102 -33 149 -83 145 -151 97
-489 -127 -885 -70 -123 -158 -260 -168 -260 -4 0 -26 26 -50 58 -175 232
-557 601 -804 776 -49 35 -53 41 -37 51 74 52 205 127 311 180 309 154 535
205 726 163z m-1066 -485 c73 -54 197 -154 271 -218 64 -56 337 -330 400 -402
106 -122 181 -225 172 -237 -4 -6 -35 -45 -67 -86 -170 -212 -353 -398 -611
-620 -32 -28 -221 -172 -242 -184 -14 -8 -137 80 -301 216 -142 120 -433 415
-548 559 l-101 126 70 89 c96 121 193 229 319 354 92 92 139 135 304 279 60
52 236 181 247 181 6 0 45 -26 87 -57z m-979 -1081 c189 -227 464 -490 697
-667 50 -38 90 -72 88 -76 -11 -17 -236 -145 -357 -204 -424 -204 -747 -214
-868 -25 -102 158 -58 436 124 785 78 149 194 331 205 319 5 -5 54 -64 111
-132z m1997 -10 c112 -179 237 -456 258 -570 3 -15 7 -38 10 -52 26 -130 9
-270 -43 -345 -33 -47 -107 -100 -165 -117 -121 -34 -351 0 -562 84 -140 55
-400 193 -483 257 l-23 17 88 66 c255 193 545 473 747 721 l71 88 20 -25 c11
-14 48 -70 82 -124z"/>
<path d="M20 2768 c-11 -18 -20 -46 -20 -63 0 -34 29 -97 47 -103 19 -5 53 58
53 98 0 36 -32 100 -50 100 -6 0 -19 -15 -30 -32z"/>
<path d="M4734 2775 c-26 -40 -29 -105 -5 -142 25 -40 35 -41 58 -7 24 37 25
105 2 143 -23 38 -33 39 -55 6z"/>
<path d="M19 2188 c-15 -26 -19 -43 -14 -77 5 -46 28 -91 45 -91 18 0 50 64
50 100 0 36 -32 100 -50 100 -6 0 -19 -15 -31 -32z"/>
<path d="M4734 2195 c-26 -40 -29 -105 -5 -142 26 -41 36 -41 60 -2 23 38 22
106 -2 143 -22 32 -32 33 -53 1z"/>
<path d="M455 1041 c9 -52 61 -101 114 -108 l42 -6 -7 29 c-16 68 -65 114
-126 119 -29 3 -30 2 -23 -34z"/>
<path d="M4304 1069 c-17 -5 -43 -21 -58 -35 -25 -26 -48 -81 -39 -96 7 -13
43 -9 78 8 37 17 82 91 72 117 -7 19 -9 19 -53 6z"/>
<path d="M879 667 c-22 -54 56 -147 124 -147 27 0 29 2 24 30 -13 61 -56 102
-121 114 -14 3 -26 4 -27 3z"/>
<path d="M3865 651 c-45 -20 -72 -54 -82 -101 -5 -28 -3 -30 24 -30 58 0 114
54 127 123 6 33 -10 35 -69 8z"/>
<path d="M2041 159 c-49 -22 -49 -35 -1 -61 43 -23 85 -23 129 0 46 23 49 37
10 58 -47 24 -90 25 -138 3z"/>
<path d="M2642 160 c-50 -23 -50 -38 -1 -62 44 -23 86 -23 129 0 45 25 48 38
11 56 -49 26 -92 28 -139 6z"/>
</g>
</svg>
